<svg xmlns="http://www.w3.org/2000/svg" version="1.0" width="300.000000pt" height="272.000000pt" viewBox="0 0 300.000000 272.000000" preserveAspectRatio="xMidYMid meet">
<metadata fill="#46c675">
Created by potrace 1.10, written by Peter Selinger 2001-2011
</metadata>
<g transform="translate(0.000000,272.000000) scale(0.100000,-0.100000)" fill="#46c675" stroke="none">
<path d="M1285 2484 c-232 -42 -438 -147 -601 -309 -82 -80 -158 -173 -177 -215 -4 -8 -17 -31 -28 -50 -21 -34 -43 -85 -80 -185 -54 -143 -72 -364 -44 -531 22 -129 75 -284 125 -367 11 -18 23 -39 26 -47 27 -60 198 -248 289 -316 97 -73 291 -167 370 -178 44 -7 39 -4 -55 26 -260 83 -514 305 -643 563 -296 592 -3 1316 624 1546 337 124 706 76 1017 -132 144 -97 302 -281 375 -440 230 -496 75 -1083 -368 -1393 -83 -58 -199 -117 -285 -144 -36 -12 -72 -23 -80 -26 -9 -2 -5 -5 9 -5 28 -1 184 59 261 102 187 101 366 289 465 487 154 309 154 691 0 1000 -76 153 -207 308 -345 410 -239 177 -568 255 -855 204z" fill="#46c675"/>
<path d="M1422 2410 c-23 -31 -28 -45 -13 -36 12 8 41 -3 41 -15 0 -4 -12 -20 -27 -34 -20 -18 -23 -25 -12 -25 20 0 49 31 49 53 0 12 8 17 26 17 22 0 24 -3 18 -22 -4 -13 -12 -26 -18 -30 -15 -10 0 -22 19 -15 10 4 15 19 15 43 0 28 3 35 15 30 24 -9 17 8 -15 39 -37 35 -48 28 -18 -10 l22 -28 -24 6 c-14 4 -36 7 -49 7 -23 0 -23 1 -8 18 18 20 22 32 9 32 -5 0 -18 -13 -30 -30z" fill="#46c675"/>
<path d="M1242 2415 c-59 -14 -77 -25 -44 -25 18 0 22 -6 22 -35 0 -20 -8 -47 -17 -62 -14 -21 -14 -25 -3 -21 8 2 19 19 25 36 10 36 17 39 35 17 10 -12 8 -18 -11 -35 -29 -24 -13 -26 21 -3 14 10 38 16 55 15 l30 -1 -27 12 c-20 9 -25 16 -18 27 16 24 12 50 -6 43 -12 -4 -14 0 -8 21 3 14 5 26 3 25 -2 -1 -28 -7 -57 -14z m32 -30 c-5 -20 -3 -24 10 -19 10 4 16 1 16 -9 0 -29 -23 -31 -47 -3 -28 32 -29 43 -5 49 31 8 32 7 26 -18z" fill="#46c675"/>
<path d="M1630 2422 c0 -5 21 -13 48 -17 40 -6 44 -9 25 -16 -13 -5 -23 -13 -23 -19 0 -7 -9 -9 -20 -6 -11 3 -29 9 -40 12 -11 3 -20 1 -20 -4 0 -5 16 -13 35 -16 26 -5 35 -12 35 -27 0 -11 -7 -22 -15 -25 -21 -8 -19 -26 2 -22 9 2 20 14 23 28 6 22 11 25 43 23 20 -1 37 2 37 7 0 6 -9 10 -19 10 -28 0 -52 11 -45 21 3 5 16 9 29 9 35 0 40 18 8 26 -36 8 -64 14 -85 20 -10 3 -18 1 -18 -4z" fill="#46c675"/>
<path d="M1067 2368 c-21 -11 -22 -37 -3 -44 8 -3 14 -15 13 -27 0 -12 2 -28 4 -36 2 -7 -2 -16 -10 -19 -10 -3 -12 0 -8 10 6 16 -10 38 -27 38 -6 0 -4 -5 4 -11 13 -9 12 -10 -2 -5 -10 3 -18 1 -18 -3 0 -5 5 -11 12 -13 6 -2 12 -14 13 -26 1 -11 -2 -19 -7 -16 -4 3 -8 12 -8 20 0 8 -7 17 -15 20 -11 5 -12 10 -2 25 6 10 18 19 26 19 11 0 11 3 1 15 -6 8 -9 19 -5 25 8 13 4 13 -39 -5 l-36 -15 17 -33 c9 -17 16 -36 15 -40 -1 -5 2 -6 7 -3 5 3 14 -8 21 -24 7 -17 13 -30 14 -30 0 0 26 13 57 29 49 24 55 31 48 49 -5 12 -16 22 -26 22 -16 0 -16 -2 -3 -11 12 -8 12 -10 1 -7 -20 6 -25 48 -5 48 8 0 12 -4 9 -10 -3 -5 -2 -10 4 -10 18 0 23 20 7 26 -9 3 -16 10 -16 16 0 20 -26 36 -43 26z" fill="#46c675"/>
<path d="M1840 2367 c0 -9 -7 -22 -15 -31 -13 -13 -13 -15 6 -21 11 -4 18 -9 15 -12 -3 -4 2 -12 12 -20 15 -13 15 -13 -7 -7 -16 4 -21 3 -17 -5 4 -6 15 -11 24 -11 13 0 14 -2 3 -9 -9 -6 -10 -11 -2 -15 6 -4 8 -12 5 -18 -5 -8 3 -9 26 -5 18 4 39 7 46 7 8 0 14 5 14 10 0 6 -15 8 -40 4 -42 -7 -46 -4 -30 26 7 13 6 19 -6 24 -12 4 -13 10 -4 26 10 19 9 20 -16 14 -26 -7 -26 -6 -8 15 20 23 30 28 18 10 -4 -8 1 -9 17 -4 13 3 20 3 14 -2 -13 -10 -18 -33 -7 -33 10 0 32 21 32 31 0 4 -15 13 -32 20 -18 7 -36 14 -40 17 -5 2 -8 -3 -8 -11z" fill="#46c675"/>
<path d="M905 2260 c-4 -6 -16 -8 -27 -4 -14 4 -19 2 -16 -6 2 -7 -5 -23 -17 -36 -17 -21 -21 -22 -32 -8 -6 9 -14 11 -17 5 -4 -5 -2 -12 3 -16 6 -3 7 -13 4 -22 -4 -10 -2 -14 4 -10 13 8 24 -18 17 -38 -4 -8 -1 -15 5 -15 6 0 11 8 11 18 0 12 5 10 18 -10 16 -27 32 -37 32 -19 0 5 -7 14 -15 21 -20 16 -19 23 5 51 l20 24 -6 -30 c-5 -23 -4 -27 5 -19 7 6 15 31 18 55 3 26 2 40 -3 36 -5 -5 -9 -14 -9 -19 0 -6 -5 -13 -12 -15 -18 -6 -9 28 12 43 10 8 16 16 13 20 -3 3 -9 0 -13 -6z m-38 -87 c-3 -3 -13 -3 -21 -1 -15 3 -15 6 1 28 l18 25 3 -23 c2 -13 1 -26 -1 -29z" fill="#46c675"/>
<path d="M1335 2256 c-129 -21 -232 -59 -355 -134 -37 -23 -139 -111 -180 -155 -203 -222 -279 -565 -189 -857 96 -313 357 -550 684 -621 96 -21 285 -16 387 9 317 78 558 309 654 627 24 80 27 107 28 240 0 127 -3 162 -22 229 -104 364 -391 617 -755 666 -97 12 -149 12 -252 -4z m355 -31 c78 -20 210 -81 277 -126 65 -45 167 -143 215 -208 191 -256 223 -624 79 -911 -94 -187 -262 -345 -457 -428 -88 -37 -224 -62 -338 -62 -328 0 -635 190 -785 487 -170 337 -97 762 176 1024 129 124 258 192 444 234 84 19 299 14 389 -10z" fill="#46c675"/>
<path d="M1446 2188 c-3 -10 -8 -25 -11 -34 -4 -12 -12 -14 -30 -10 -30 8 -34 -10 -4 -19 16 -6 19 -12 14 -36 -7 -33 -1 -36 22 -13 14 14 18 13 39 -7 26 -24 30 -20 13 14 -10 18 -8 24 17 45 l29 24 -32 -7 c-30 -6 -33 -4 -41 27 -7 25 -11 29 -16 16z" fill="#46c675"/>
<path d="M1053 2104 c-49 -25 -75 -86 -74 -181 0 -74 21 -205 42 -260 12 -32 7 -39 -38 -48 -21 -4 -65 -16 -98 -27 -182 -62 -274 -151 -251 -243 9 -37 60 -90 119 -123 57 -32 188 -79 247 -88 l38 -6 -19 -60 c-46 -153 -51 -316 -11 -380 66 -106 208 -68 388 105 l76 72 66 -63 c189 -180 342 -213 399 -88 33 73 16 282 -31 396 -5 12 9 19 65 33 169 42 303 124 329 203 33 98 -110 211 -330 265 -30 7 -56 14 -58 15 -1 1 7 37 19 80 29 107 33 283 6 332 -21 39 -71 72 -108 72 -38 0 -104 -25 -155 -60 -33 -22 -51 -28 -72 -24 -39 8 -59 -17 -44 -51 16 -36 50 -33 66 6 12 28 39 50 106 87 14 8 48 16 77 19 61 7 93 -9 120 -60 24 -46 22 -177 -7 -300 l-22 -99 -37 7 c-20 5 -79 13 -132 19 l-97 11 -63 85 c-34 47 -67 90 -73 96 -137 147 -225 218 -314 253 -63 25 -86 26 -129 5z m141 -24 c60 -25 137 -83 210 -158 l59 -60 -45 -54 c-24 -29 -60 -74 -78 -100 -31 -44 -37 -48 -75 -48 -23 0 -82 -7 -130 -15 -48 -9 -89 -14 -90 -13 -2 2 -13 39 -26 83 -31 109 -34 286 -5 330 11 17 27 35 35 42 24 19 94 15 145 -7z m346 -312 c35 -46 67 -87 71 -93 5 -7 -42 -10 -137 -10 -79 0 -144 2 -144 4 0 2 26 38 58 79 31 41 61 81 67 88 5 8 13 14 16 14 4 0 35 -37 69 -82z m40 -118 l47 0 50 -82 c27 -46 64 -109 81 -140 l32 -58 -49 -87 c-26 -49 -61 -109 -77 -135 l-29 -47 -165 0 -165 -1 -34 58 c-19 31 -54 92 -77 135 l-44 77 49 88 c26 48 62 110 80 137 l32 50 67 6 c37 4 87 5 111 3 24 -2 65 -4 91 -4z m-299 -28 c-69 -97 -231 -425 -231 -467 0 -20 -16 -19 -103 5 -88 25 -201 77 -246 115 -136 116 -21 249 285 328 l51 13 17 -50 c25 -71 78 -187 84 -182 2 3 -14 47 -36 98 -62 147 -65 133 25 147 43 7 85 14 93 16 8 1 30 3 48 4 l33 1 -20 -28z m503 12 c55 -9 102 -17 104 -19 3 -2 -34 -98 -73 -189 l-17 -40 -30 55 c-17 30 -51 87 -75 127 -23 40 -43 75 -43 77 0 8 28 6 134 -11z m244 -53 c169 -55 262 -129 262 -208 0 -40 -52 -101 -116 -139 -45 -27 -188 -78 -245 -89 -33 -6 -34 -5 -47 37 -8 23 -29 76 -48 116 l-33 74 23 46 c13 26 36 80 51 120 l29 74 33 -7 c19 -3 59 -14 91 -24z m-828 -323 c28 -51 60 -108 71 -125 18 -28 18 -33 5 -33 -8 0 -20 9 -26 20 -12 23 -42 26 -59 7 -14 -18 -131 -1 -131 19 0 13 80 204 85 204 2 0 26 -42 55 -92z m644 -14 c39 -100 42 -114 24 -114 -7 -1 -58 -7 -113 -14 -55 -7 -101 -13 -102 -12 0 0 21 37 48 81 27 44 59 99 71 123 11 24 24 40 28 35 4 -4 24 -49 44 -99z m-716 -134 c22 0 39 -8 54 -25 25 -29 40 -31 58 -10 27 33 56 18 115 -62 32 -43 70 -91 84 -106 l26 -29 -87 -82 c-172 -163 -309 -198 -365 -93 -26 48 -22 206 7 317 27 103 27 103 54 96 11 -3 36 -6 54 -6z m775 -37 c40 -125 49 -281 22 -351 -48 -120 -188 -87 -380 91 l-70 65 31 34 c18 18 54 65 82 103 l51 70 108 16 c59 9 116 17 125 18 11 1 21 -14 31 -46z m-283 9 c0 -3 -80 -110 -128 -170 l-18 -23 -29 33 c-36 40 -86 104 -108 138 l-16 25 149 0 c83 0 150 -1 150 -3z" fill="#46c675"/>
<path d="M1450 1468 c-11 -24 -20 -58 -20 -77 0 -32 33 -101 49 -101 16 0 41 61 41 99 0 44 -26 121 -42 121 -5 0 -18 -19 -28 -42z m46 -63 c7 -26 -11 -59 -27 -49 -10 6 -12 58 -2 67 13 13 23 7 29 -18z" fill="#46c675"/>
<path d="M1350 1463 c0 -40 23 -96 52 -126 17 -18 26 -25 20 -17 -5 8 -16 35 -23 59 -11 39 -11 45 4 56 16 11 15 14 -7 29 -32 21 -46 20 -46 -1z" fill="#46c675"/>
<path d="M1552 1464 c-18 -13 -21 -19 -11 -30 7 -9 9 -29 5 -56 -6 -35 -5 -39 8 -29 12 10 36 90 36 121 0 14 -12 12 -38 -6z" fill="#46c675"/>
<path d="M1280 1419 c-1 -67 46 -120 120 -134 l35 -6 -32 20 c-18 11 -33 27 -33 36 0 8 -14 25 -31 37 -17 13 -37 34 -45 48 l-13 25 -1 -26z" fill="#46c675"/>
<path d="M1613 1381 c-24 -24 -43 -47 -43 -51 0 -11 -33 -37 -55 -44 -11 -3 -2 -3 20 0 59 8 95 31 111 71 27 63 14 73 -33 24z" fill="#46c675"/>
<path d="M1510 1915 c-18 -19 -31 -37 -29 -40 3 -2 23 13 44 35 22 22 35 40 29 40 -6 0 -25 -16 -44 -35z" fill="#46c675"/>
<path d="M820 1803 c0 -17 -6 -23 -22 -24 l-23 0 23 -11 c17 -8 21 -17 16 -32 -6 -20 -6 -20 12 -4 14 12 24 14 37 6 17 -9 18 -8 7 13 -11 19 -10 25 6 37 18 13 18 14 -4 7 -17 -5 -27 -2 -37 12 -14 17 -14 17 -15 -4z" fill="#46c675"/>
<path d="M2110 1809 c0 -7 -10 -9 -25 -7 -14 3 -25 1 -25 -3 0 -5 5 -9 11 -9 7 0 9 -10 5 -26 -6 -22 -4 -24 11 -16 13 8 20 6 30 -6 11 -15 12 -15 13 6 0 13 6 22 15 22 8 0 15 5 15 10 0 6 -9 10 -21 10 -15 0 -19 5 -15 15 3 8 1 15 -4 15 -6 0 -10 -5 -10 -11z" fill="#46c675"/>
<path d="M804 992 c5 -14 3 -29 -6 -39 -11 -14 -10 -15 8 -9 16 5 24 1 32 -16 l11 -23 0 23 c1 16 7 22 24 22 20 1 20 2 5 11 -10 5 -18 19 -18 31 0 17 -2 18 -15 8 -12 -10 -18 -10 -31 1 -15 12 -16 11 -10 -9z" fill="#46c675"/>
<path d="M2083 992 c3 -15 0 -25 -9 -29 -8 -3 -14 -9 -14 -14 0 -4 7 -6 15 -3 10 4 15 0 15 -15 0 -12 5 -21 10 -21 6 0 10 7 10 15 0 9 9 15 21 15 18 0 19 2 9 15 -10 12 -10 18 0 30 8 9 9 15 2 15 -6 0 -14 -5 -17 -11 -5 -7 -14 -4 -28 8 -20 18 -20 17 -14 -5z" fill="#46c675"/>
<path d="M1344 649 c-4 -8 0 -9 15 -4 27 8 27 -6 1 -30 -27 -24 -25 -35 5 -35 14 0 25 5 25 10 0 6 -5 10 -12 10 -9 0 -9 3 0 12 19 19 15 48 -7 48 -11 0 -23 -5 -27 -11z" fill="#46c675"/>
<path d="M1414 646 c-11 -28 0 -61 21 -61 16 0 20 7 20 35 0 25 -5 36 -18 38 -9 2 -20 -3 -23 -12z m30 -11 c7 -19 -3 -47 -15 -39 -12 7 -12 54 0 54 5 0 11 -7 15 -15z" fill="#46c675"/>
<path d="M1487 653 c-10 -10 -8 -25 2 -18 5 3 12 -9 14 -27 3 -29 4 -28 5 10 2 39 -5 51 -21 35z" fill="#46c675"/>
<path d="M1542 623 c2 -30 7 -38 23 -38 28 0 33 35 6 42 -12 3 -21 10 -21 15 0 5 10 6 21 3 15 -5 19 -4 15 4 -4 6 -16 11 -27 11 -17 0 -20 -6 -17 -37z" fill="#46c675"/>
<path d="M2027 2252 c-15 -10 -25 -22 -23 -29 3 -6 -4 -23 -16 -38 -11 -14 -18 -29 -14 -32 7 -7 4 -10 45 50 18 26 36 47 41 47 6 0 10 5 10 10 0 13 -10 11 -43 -8z" fill="#46c675"/>
<path d="M2070 2232 c-9 -4 -16 -18 -16 -32 0 -17 -6 -26 -24 -31 -23 -6 -21 -7 10 -9 l35 -3 -40 -7 -40 -7 35 -2 c33 -2 34 -2 16 -16 -17 -13 -17 -15 -3 -15 9 0 21 8 26 18 9 14 10 13 11 -10 0 -16 5 -28 10 -28 6 0 8 11 4 25 -6 23 3 31 22 23 9 -5 26 33 19 40 -4 4 -10 1 -12 -6 -3 -6 -10 -9 -15 -6 -7 4 -8 2 -4 -4 4 -7 1 -12 -8 -12 -20 0 -20 14 -1 30 8 7 15 9 15 4 0 -4 5 -3 11 3 8 8 7 17 -3 32 -13 22 -22 24 -48 13z" fill="#46c675"/>
<path d="M930 2198 c0 -13 -7 -36 -15 -52 -17 -33 -18 -36 -6 -36 5 0 14 14 21 31 10 22 18 29 32 26 10 -3 18 -1 18 4 0 5 -7 9 -15 9 -8 0 -15 9 -15 20 0 11 -4 20 -10 20 -5 0 -10 -10 -10 -22z" fill="#46c675"/>
<path d="M695 2114 c-9 -14 -15 -27 -13 -28 2 -1 11 -8 21 -15 15 -12 20 -11 35 2 15 14 19 14 38 -2 12 -10 24 -26 26 -37 5 -18 5 -18 13 -1 6 14 -3 28 -41 62 -27 24 -52 44 -55 45 -4 0 -14 -12 -24 -26z" fill="#46c675"/>
<path d="M2210 2115 c-7 -8 -19 -14 -28 -13 -8 2 -17 -3 -19 -10 -3 -7 1 -11 7 -10 7 2 14 -5 15 -16 5 -29 22 -41 37 -28 11 8 14 7 15 -8 1 -17 -2 -18 -25 -9 -18 7 -28 7 -30 0 -2 -6 -10 -11 -18 -11 -9 0 -12 -5 -9 -10 4 -6 15 -8 25 -5 12 4 24 -3 38 -22 11 -15 24 -25 28 -20 4 4 -2 16 -14 27 -27 25 -28 34 -3 21 10 -6 21 -7 25 -4 3 3 6 -2 6 -12 0 -15 3 -16 12 -7 9 9 7 17 -10 35 -22 23 -22 24 -3 41 19 17 18 52 -1 40 -5 -3 -7 -13 -4 -21 4 -9 1 -13 -6 -10 -7 2 -19 -3 -26 -12 -8 -9 -11 -11 -8 -4 4 6 2 14 -4 18 -5 3 -10 11 -10 17 0 6 3 8 7 5 3 -4 12 1 20 11 9 11 12 11 7 2 -5 -12 -4 -12 6 -3 12 11 6 33 -9 33 -5 0 -14 -7 -21 -15z" fill="#46c675"/>
<path d="M640 2051 c-12 -17 -18 -31 -13 -31 4 0 28 -18 51 -40 53 -48 79 -53 34 -7 -28 29 -30 34 -17 48 14 14 13 18 -9 38 l-24 22 -22 -30z" fill="#46c675"/>
<path d="M2282 2042 c-7 -9 -10 -11 -6 -3 5 9 3 12 -4 7 -11 -7 -6 -36 7 -36 3 0 14 7 24 14 14 11 15 15 4 24 -9 8 -16 7 -25 -6z" fill="#46c675"/>
<path d="M571 1934 c-6 -14 -15 -23 -20 -19 -6 3 -9 -7 -8 -21 3 -33 64 -78 85 -62 9 8 12 5 12 -12 0 -13 3 -20 7 -17 3 4 6 19 5 35 0 19 6 31 21 37 11 6 23 17 25 25 4 11 -1 10 -17 -4 -22 -20 -30 -9 -9 12 9 9 8 12 -6 12 -10 0 -33 9 -51 20 l-32 20 -12 -26z m41 -8 c10 -7 14 -16 10 -21 -4 -4 3 -4 16 -1 25 8 28 3 9 -16 -7 -7 -18 -24 -25 -38 l-12 -25 1 30 c2 52 -1 65 -12 65 -5 0 -7 -4 -4 -10 3 -5 2 -10 -3 -10 -5 0 -9 -7 -9 -15 0 -8 4 -15 9 -15 4 0 8 -4 8 -10 0 -6 -10 -5 -25 2 -28 13 -32 23 -11 35 14 8 16 12 16 33 0 13 11 12 32 -4z" fill="#46c675"/>
<path d="M2330 1954 c0 -4 7 -15 16 -25 12 -14 13 -22 4 -38 -8 -15 -8 -21 0 -21 6 0 8 -5 4 -11 -5 -8 -10 -6 -16 5 -6 11 -6 22 2 31 6 8 9 19 5 25 -9 15 -45 12 -45 -3 0 -8 -11 -19 -25 -25 l-25 -11 28 -45 c22 -36 30 -42 45 -35 19 11 24 30 6 27 -6 -2 -13 2 -16 8 -2 6 3 11 12 11 8 0 15 -5 15 -11 0 -6 7 -3 14 6 7 10 17 14 21 10 4 -4 2 4 -5 17 -10 19 -10 22 1 16 9 -6 11 -3 6 9 -4 10 -3 15 3 11 6 -4 10 -12 8 -18 -3 -20 13 -77 22 -77 5 0 4 15 -1 32 -5 18 -6 41 -3 50 3 10 1 18 -5 18 -5 0 -23 12 -40 26 -17 14 -31 22 -31 18z m-7 -52 c-8 -5 -9 -13 -3 -22 6 -8 10 -19 10 -25 -1 -5 -5 -2 -11 8 -11 18 -29 14 -29 -6 0 -9 3 -8 8 1 6 8 9 2 9 -18 l0 -30 -17 27 c-16 26 -15 29 9 55 13 16 27 26 30 22 3 -3 0 -8 -6 -12z" fill="#46c675"/>
<path d="M590 1801 c12 -23 29 -35 37 -27 7 7 -26 46 -39 46 -5 0 -4 -9 2 -19z" fill="#46c675"/>
<path d="M455 1590 c-4 -7 -3 -16 3 -22 14 -14 45 -2 40 15 -6 16 -34 21 -43 7z" fill="#46c675"/>
<path d="M2424 1589 c-9 -15 11 -33 30 -26 9 4 13 13 10 22 -7 17 -30 20 -40 4z" fill="#46c675"/>
<path d="M410 1431 c0 -5 12 -12 28 -14 l27 -4 -27 -2 c-18 0 -28 -7 -28 -16 0 -10 10 -15 28 -15 18 0 23 3 14 9 -10 6 -4 10 18 15 19 3 30 11 28 18 -5 15 -88 24 -88 9z" fill="#46c675"/>
<path d="M2470 1410 c0 -25 4 -30 25 -30 17 0 29 7 35 23 l9 22 0 -24 c1 -18 4 -22 12 -14 6 6 8 20 4 32 -5 17 -15 21 -46 21 -37 0 -39 -2 -39 -30z" fill="#46c675"/>
<path d="M438 1373 c-41 -6 -34 -19 12 -20 29 -2 40 2 40 13 0 7 -6 13 -12 13 -7 -1 -25 -4 -40 -6z" fill="#46c675"/>
<path d="M2470 1330 c0 -27 3 -30 30 -30 17 0 30 5 30 10 0 6 -9 10 -19 10 -11 0 -23 5 -26 10 -4 6 5 10 19 10 14 0 26 5 26 10 0 6 -13 10 -30 10 -27 0 -30 -3 -30 -30z" fill="#46c675"/>
<path d="M417 1334 c-4 -4 -7 -18 -7 -32 0 -21 3 -23 28 -17 37 9 49 22 34 37 -9 9 -12 8 -12 -6 0 -16 -2 -16 -18 4 -9 12 -21 18 -25 14z" fill="#46c675"/>
<path d="M2440 1280 c0 -6 21 -10 47 -10 56 0 53 7 -5 15 -25 3 -42 1 -42 -5z" fill="#46c675"/>
<path d="M427 1264 c-11 -11 -8 -42 4 -50 8 -4 9 0 4 15 -5 17 -2 21 14 21 14 0 19 -5 15 -15 -4 -8 -1 -15 6 -15 6 0 10 10 8 23 -3 22 -36 36 -51 21z" fill="#46c675"/>
<path d="M2462 1223 c3 -25 7 -28 41 -30 26 -1 40 4 44 14 8 21 -23 43 -60 43 -25 0 -28 -3 -25 -27z" fill="#46c675"/>
<path d="M430 1169 c0 -24 3 -30 16 -25 9 3 22 6 30 6 8 0 14 10 14 25 0 14 -5 25 -11 25 -6 0 -9 -7 -5 -15 3 -8 1 -15 -3 -15 -5 0 -11 7 -15 15 -10 26 -26 16 -26 -16z" fill="#46c675"/>
<path d="M2451 1161 c-7 -13 -8 -22 -1 -26 5 -3 10 2 11 12 0 14 2 13 10 -5 11 -28 29 -25 40 6 6 16 5 22 -6 22 -7 0 -20 3 -28 6 -9 3 -20 -3 -26 -15z" fill="#46c675"/>
<path d="M450 1126 c-27 -33 18 -72 48 -42 13 13 14 20 6 34 -15 23 -38 26 -54 8z" fill="#46c675"/>
<path d="M2424 1072 c-10 -37 -9 -39 18 -50 16 -6 30 -6 33 -1 3 4 -6 11 -20 15 -36 9 -32 27 5 19 19 -4 30 -3 30 4 0 6 -9 11 -19 11 -11 0 -23 5 -27 11 -4 7 3 10 17 9 37 -3 45 0 29 10 -33 21 -55 12 -66 -28z" fill="#46c675"/>
<path d="M517 1043 c-4 -3 -7 -17 -7 -30 0 -12 -5 -23 -11 -23 -6 0 -9 9 -6 20 5 21 -7 28 -18 10 -10 -16 15 -51 33 -48 9 2 20 17 23 33 5 23 7 25 8 8 1 -25 21 -32 21 -9 0 37 -24 59 -43 39z" fill="#46c675"/>
<path d="M2380 1015 c0 -7 10 -15 23 -18 12 -2 30 -8 40 -12 9 -4 17 -3 17 1 0 5 -18 17 -40 26 -31 13 -40 14 -40 3z" fill="#46c675"/>
<path d="M523 963 c-18 -7 -16 -52 3 -60 23 -9 51 23 38 44 -12 19 -23 24 -41 16z" fill="#46c675"/>
<path d="M2377 949 c-4 -15 1 -23 20 -30 30 -11 46 -2 20 12 -9 6 -17 17 -17 24 0 22 -17 18 -23 -6z" fill="#46c675"/>
<path d="M2357 903 c-4 -3 -7 -13 -7 -22 0 -14 2 -14 10 -1 8 12 10 11 10 -7 0 -12 4 -24 9 -28 12 -7 44 37 33 46 -12 12 -48 20 -55 12z" fill="#46c675"/>
<path d="M552 891 c-20 -12 -10 -45 13 -48 11 -2 14 0 8 3 -18 8 -16 34 1 34 8 0 17 -8 20 -17 3 -11 4 -8 3 7 -2 26 -23 36 -45 21z" fill="#46c675"/>
<path d="M2300 863 c0 -5 18 -18 40 -31 47 -26 54 -16 10 16 -30 22 -50 28 -50 15z" fill="#46c675"/>
<path d="M630 850 c0 -5 -6 -10 -13 -10 -18 0 -53 -27 -45 -35 3 -3 22 4 42 17 35 23 46 38 26 38 -5 0 -10 -4 -10 -10z" fill="#46c675"/>
<path d="M2306 823 c-3 -3 3 -13 14 -20 11 -8 18 -19 14 -25 -4 -6 -10 -6 -17 1 -14 14 -40 15 -32 1 14 -23 43 -30 59 -14 9 8 16 19 16 24 0 11 -47 40 -54 33z" fill="#46c675"/>
<path d="M600 795 c-10 -12 -10 -18 0 -30 15 -18 21 -19 44 -2 11 8 15 19 10 30 -8 21 -37 22 -54 2z" fill="#46c675"/>
<path d="M656 746 c-17 -14 -26 -29 -21 -36 5 -8 12 -5 22 10 10 14 19 18 25 12 13 -13 -8 -52 -27 -52 -8 0 -15 -4 -15 -10 0 -13 12 -13 60 2 44 14 56 34 13 23 -24 -6 -25 -5 -13 10 11 13 11 18 2 24 -7 4 -10 15 -6 24 9 23 -6 21 -40 -7z" fill="#46c675"/>
<path d="M2250 735 c0 -15 -6 -25 -14 -25 -7 0 -19 -7 -26 -15 -15 -19 3 -45 31 -45 20 0 35 18 24 28 -4 4 -10 1 -12 -5 -3 -7 -8 -13 -13 -13 -4 0 -3 11 3 24 8 17 19 24 36 23 17 -1 26 4 29 16 2 9 -2 17 -8 17 -6 0 -8 -4 -5 -10 3 -5 0 -10 -8 -10 -21 0 -28 12 -16 27 9 10 8 13 -5 13 -10 0 -16 -9 -16 -25z" fill="#46c675"/>
<path d="M2160 672 c0 -5 14 -21 30 -37 35 -34 41 -18 6 19 -24 27 -36 32 -36 18z" fill="#46c675"/>
<path d="M747 648 c-24 -13 -21 -45 4 -53 26 -8 52 15 44 37 -9 22 -27 28 -48 16z" fill="#46c675"/>
<path d="M2127 617 c-8 -22 16 -50 39 -45 13 2 19 12 19 28 0 20 -6 26 -26 28 -16 2 -29 -3 -32 -11z" fill="#46c675"/>
<path d="M810 606 c0 -7 -7 -19 -15 -26 -8 -7 -12 -16 -9 -22 3 -5 16 2 29 17 13 14 29 25 35 25 5 0 10 5 10 10 0 6 -11 10 -25 10 -15 0 -25 -6 -25 -14z" fill="#46c675"/>
<path d="M2075 600 c-3 -5 -1 -19 5 -30 13 -24 -2 -27 -20 -5 -25 30 -34 -1 -10 -35 12 -17 25 -29 28 -26 2 3 -1 12 -8 21 -15 18 0 21 18 3 18 -18 24 -4 12 28 -10 29 -9 29 6 7 26 -37 36 -26 12 12 -24 36 -33 42 -43 25z" fill="#46c675"/>
<path d="M857 556 c-29 -38 -23 -60 6 -24 l18 23 -4 -32 c-5 -42 12 -43 42 -2 27 37 18 54 -10 19 l-20 -25 6 32 c9 44 -8 49 -38 9z" fill="#46c675"/>
<path d="M1983 528 c2 -7 -3 -18 -12 -25 -32 -24 15 -65 49 -43 13 8 13 14 -4 45 -18 33 -43 50 -33 23z" fill="#46c675"/>
<path d="M922 496 c-9 -21 -8 -27 12 -39 20 -14 23 -13 38 14 10 16 13 29 7 29 -5 0 -12 -7 -15 -15 -4 -8 -13 -15 -20 -15 -11 0 -12 4 -4 19 12 24 13 31 2 31 -5 0 -14 -11 -20 -24z" fill="#46c675"/>
<path d="M992 468 c-7 -7 -12 -18 -12 -25 0 -17 37 -36 45 -23 3 5 -1 10 -9 10 -9 0 -16 7 -16 16 0 13 6 15 27 9 23 -5 25 -4 14 9 -16 19 -33 20 -49 4z" fill="#46c675"/>
<path d="M1070 476 c0 -2 -7 -20 -15 -40 -10 -23 -11 -36 -5 -36 6 0 18 16 26 35 17 41 17 45 4 45 -5 0 -10 -2 -10 -4z" fill="#46c675"/>
<path d="M1902 471 c-10 -6 -11 -13 -1 -34 7 -15 16 -27 21 -27 11 0 10 7 -2 31 -14 25 7 26 26 2 18 -26 26 -11 8 15 -16 23 -31 27 -52 13z" fill="#46c675"/>
<path d="M1837 443 c-12 -11 -7 -21 9 -19 9 0 19 -6 21 -14 4 -12 3 -12 -5 -1 -7 10 -11 10 -17 1 -12 -20 10 -33 33 -19 17 10 18 16 9 36 -10 22 -36 31 -50 16z" fill="#46c675"/>
<path d="M1092 428 c-17 -17 -15 -45 4 -52 22 -9 46 13 42 38 -4 24 -28 32 -46 14z" fill="#46c675"/>
<path d="M1160 410 c0 -5 8 -10 18 -11 11 -1 8 -4 -8 -8 -31 -9 -33 -35 -3 -39 17 -3 24 3 29 23 4 18 2 30 -7 36 -19 12 -29 11 -29 -1z" fill="#46c675"/>
<path d="M1752 408 c-13 -17 3 -58 21 -58 23 0 36 23 26 48 -9 24 -31 29 -47 10z" fill="#46c675"/>
<path d="M1296 394 c-3 -9 -6 -30 -6 -47 l1 -32 14 30 13 30 1 -27 c1 -16 6 -28 11 -28 10 0 4 63 -7 83 -7 12 -21 8 -27 -9z" fill="#46c675"/>
<path d="M1637 373 c6 -39 23 -70 23 -41 0 30 -13 78 -21 78 -4 0 -5 -17 -2 -37z" fill="#46c675"/>
<path d="M1220 386 c0 -8 -3 -21 -6 -30 -3 -9 -1 -16 5 -16 6 0 11 7 11 15 0 9 7 18 15 21 22 9 18 24 -5 24 -11 0 -20 -6 -20 -14z" fill="#46c675"/>
<path d="M1345 381 c-5 -17 11 -79 19 -70 2 2 6 23 10 47 5 33 3 42 -8 42 -8 0 -17 -8 -21 -19z" fill="#46c675"/>
<path d="M1500 387 c0 -11 -8 -17 -21 -17 -16 0 -20 -5 -17 -27 2 -22 9 -29 30 -31 27 -3 28 -2 25 37 -3 39 -17 71 -17 38z" fill="#46c675"/>
<path d="M1535 358 c8 -58 15 -61 15 -5 0 26 -4 47 -10 47 -6 0 -8 -17 -5 -42z" fill="#46c675"/>
<path d="M1683 392 c-13 -8 -6 -62 9 -62 6 0 7 11 4 25 -4 15 -2 25 5 25 6 0 13 -9 16 -20 3 -11 10 -20 15 -20 6 0 7 7 4 16 -3 9 -6 22 -6 30 0 15 -27 19 -47 6z" fill="#46c675"/>
<path d="M1400 365 c-17 -20 -8 -50 15 -50 14 0 21 8 23 26 4 31 -20 45 -38 24z" fill="#46c675"/>
<path d="M1574 365 c-9 -23 3 -45 25 -45 23 0 36 16 21 25 -5 3 -10 1 -10 -4 0 -6 -4 -11 -10 -11 -5 0 -10 9 -10 20 0 13 5 18 15 14 8 -4 15 -1 15 5 0 17 -40 13 -46 -4z" fill="#46c675"/>
</g>
</svg>